<?xml version="1.0" encoding="UTF-8" standalone="no"?>
<!-- Created with Inkscape (http://www.inkscape.org/) -->

<svg
   xmlns:dc="http://purl.org/dc/elements/1.1/"
   xmlns:cc="http://creativecommons.org/ns#"
   xmlns:rdf="http://www.w3.org/1999/02/22-rdf-syntax-ns#"
   xmlns:svg="http://www.w3.org/2000/svg"
   xmlns="http://www.w3.org/2000/svg"
   xmlns:sodipodi="http://sodipodi.sourceforge.net/DTD/sodipodi-0.dtd"
   xmlns:inkscape="http://www.inkscape.org/namespaces/inkscape"
   width="184.77916mm"
   height="135.03667mm"
   viewBox="0 0 184.77916 135.03667"
   version="1.1"
   id="svg8"
   inkscape:version="0.92.2 5c3e80d, 2017-08-06"
   sodipodi:docname="flipdial.svg">
  <defs
     id="defs2">
    <inkscape:perspective
       sodipodi:type="inkscape:persp3d"
       inkscape:vp_x="0 : 148.5 : 1"
       inkscape:vp_y="0 : 999.99997 : 0"
       inkscape:vp_z="210.00001 : 148.5 : 1"
       inkscape:persp3d-origin="105 : 98.999997 : 1"
       id="perspective11432" />
  </defs>
  <sodipodi:namedview
     id="base"
     pagecolor="#ffffff"
     bordercolor="#666666"
     borderopacity="1.0"
     inkscape:pageopacity="0.0"
     inkscape:pageshadow="2"
     inkscape:zoom="1"
     inkscape:cx="534.15505"
     inkscape:cy="121.35429"
     inkscape:document-units="mm"
     inkscape:current-layer="layer5"
     showgrid="false"
     showguides="false"
     inkscape:window-width="1280"
     inkscape:window-height="756"
     inkscape:window-x="0"
     inkscape:window-y="1"
     inkscape:window-maximized="0" />
  <metadata
     id="metadata5">
    <rdf:RDF>
      <cc:Work
         rdf:about="">
        <dc:format>image/svg+xml</dc:format>
        <dc:type
           rdf:resource="http://purl.org/dc/dcmitype/StillImage" />
        <dc:title />
      </cc:Work>
    </rdf:RDF>
  </metadata>
  <g
     inkscape:groupmode="layer"
     id="layer2"
     inkscape:label="Layer 2"
     transform="translate(-28.973344,-57.12573)"
     style="display:inline">
    <path
       style="fill:#5599ff;fill-opacity:1;fill-rule:evenodd;stroke:#000000;stroke-width:0.09448819;stroke-miterlimit:4;stroke-dasharray:none;stroke-opacity:1"
       d=""
       id="path5305"
       inkscape:connector-curvature="0"
       transform="scale(0.26458333)" />
    <path
       style="fill:#5599ff;fill-opacity:1;fill-rule:evenodd;stroke:#000000;stroke-width:0.09448819;stroke-miterlimit:4;stroke-dasharray:none;stroke-opacity:1"
       d=""
       id="path5307"
       inkscape:connector-curvature="0"
       transform="scale(0.26458333)" />
    <rect
       style="fill:#5599ff;fill-opacity:1;fill-rule:evenodd;stroke:#000000;stroke-width:0.09832466;stroke-miterlimit:4;stroke-dasharray:none;stroke-opacity:1"
       id="rect5337"
       width="184.68083"
       height="134.93834"
       x="29.022507"
       y="57.174892"
       inkscape:export-xdpi="68.706421"
       inkscape:export-ydpi="68.706421" />
    <g
       style="fill:#a4c639;stroke:#ffffff;stroke-width:14.39999962"
       id="use11214"
       transform="matrix(0.26458333,0,0,0.26458333,143.75695,104.7023)">
      <ellipse
         cx="0"
         cy="41"
         rx="91"
         ry="84"
         id="ellipse11360"
         style="fill:#ffffff" />
      <rect
         rx="22"
         height="182"
         width="182"
         y="20"
         x="-91"
         id="rect11362"
         style="fill:#ffffff" />
    </g>
    <rect
       style="fill:#ffffff;stroke:#ffffff;stroke-width:1.90499997"
       x="-128.97218"
       y="171.02899"
       width="12.7"
       height="35.189583"
       rx="6.3499999"
       id="rect11380"
       transform="matrix(-0.9334525,0.35870104,0.35870104,0.9334525,0,0)" />
    <rect
       style="fill:#ffffff;stroke:#ffffff;stroke-width:1.90499985"
       id="rect11378"
       x="-70.543236"
       y="133.27341"
       width="3.4395833"
       height="22.754166"
       transform="matrix(-0.87461971,0.48480962,0.48480962,0.87461971,0,0)"
       rx="1.7197917" />
    <rect
       rx="1.7197917"
       transform="rotate(29)"
       height="22.754166"
       width="3.4395833"
       y="-6.5361118"
       x="180.58838"
       id="rect11218"
       style="fill:#ffffff;stroke:#ffffff;stroke-width:1.90499985" />
    <ellipse
       cx="143.75694"
       cy="115.55022"
       rx="24.077084"
       ry="22.225"
       id="ellipse11224"
       style="fill:#ffffff;stroke-width:0.26458332" />
    <rect
       rx="5.8208332"
       height="48.154167"
       width="48.154167"
       y="109.99397"
       x="119.67987"
       id="rect11226"
       style="fill:#ffffff;stroke-width:0.26458332" />
    <g
       style="fill:#2a7fff;stroke:#5599ff;stroke-width:7.19999981"
       id="g11237"
       transform="matrix(0.27641996,0,0,0.26458333,143.69081,101.65958)">
      <path
         inkscape:connector-curvature="0"
         d="M -95,44.5 H 95"
         id="path11231"
         style="fill:#2a7fff;stroke:#5599ff" />
      <circle
         cy="0"
         cx="-42"
         r="4"
         id="circle11233"
         style="fill:#2a7fff;stroke:#5599ff" />
      <circle
         cy="0"
         cx="42"
         r="4"
         id="circle11235"
         style="fill:#2a7fff;stroke:#5599ff" />
    </g>
    <rect
       transform="rotate(21.020444)"
       id="rect11428"
       rx="6.3499999"
       height="35.189583"
       width="12.7"
       y="67.992363"
       x="139.16144"
       style="fill:#ffffff;stroke:#ffffff;stroke-width:1.90499997" />
    <path
       style="fill:#0066ff;fill-opacity:1;fill-rule:evenodd;stroke:#0066ff;stroke-width:0.75590551;stroke-miterlimit:4;stroke-dasharray:none;stroke-opacity:1"
       d="M 0.55505,255.22051 V 2.2205139 h 348 348 v 252.9999961 253 h -348 -348 z m 488.91224,213.04248 c 14.29464,-6.91992 16.12964,-12.39122 15.81658,-47.15916 l -0.27118,-30.11668 9.35014,-4.28946 c 6.54546,-3.00278 10.6763,-6.64902 13.77118,-12.15562 4.3436,-7.7284 4.42104,-9.18378 4.42104,-83.09386 v -75.2277 h -99 -99 v 74.06424 c 0,58.02902 0.59064,75.47782 2.72806,80.59338 3.42272,8.19172 13.2288,16.57582 21.5161,18.396 l 6.33996,1.3925 -1.1357,25.5363 c -1.33826,30.09032 0.1698,38.55898 8.31792,46.707 5.0286,5.0286 8.00152,6.18322 17.73318,6.88714 10.5316,0.76178 12.35422,0.28826 18.36806,-4.77204 10.48522,-8.82274 12.13242,-15.1686 12.13242,-46.74028 v -28.06424 h 14 14 l 0.044,28.5 c 0.054,35.0867 2.78902,43.35124 16.38854,49.52362 10.82908,4.91498 14.36014,4.9177 24.47978,0.018 z M 287.03621,346.89821 c 7.90254,-3.98062 9.55424,-7.21638 27.39324,-53.66508 17.32008,-45.09752 18.90044,-53.43722 12.20656,-64.41552 -10.17032,-16.67988 -37.0897,-16.97236 -46.81506,-0.50866 -6.65306,11.26274 -35.2659,88.50848 -35.2659,95.20694 0,12.68888 6.45046,21.2311 19.48104,25.79836 7.91954,2.77582 13.9507,2.14228 23.00012,-2.41604 z m 323.96366,-1.49784 c 6.05512,-3.96746 11.55518,-14.4759 11.55518,-22.07734 0,-2.91114 -7.65918,-25.27512 -17.02042,-49.69774 -20.33638,-53.05582 -23.53234,-57.40478 -42.1855,-57.40478 -10.35634,0 -11.86668,0.60476 -18.73062,7.5 -11.70434,11.75774 -11.88022,17.82056 -1.33126,45.8908 22.75196,60.54182 25.84846,67.57298 32.57888,73.97652 9.47688,9.0166 23.06878,9.7178 35.13374,1.81254 z M 531.31221,204.72051 c -5.1238,-21.36446 -13.94996,-36.13053 -30.22592,-50.56765 l -10.07006,-8.93235 11.22426,-21.2063 c 10.18602,-19.24471 11.00114,-21.69597 8.81228,-26.499998 -1.79188,-3.93278 -3.8858,-5.293698 -8.14486,-5.293698 -7.11308,0 -9.37068,2.58334 -21.53792,24.645556 -8.90636,16.14942 -10.15894,17.55095 -14.7732,16.52987 -22.15412,-4.90243 -35.73984,-5.6114 -50.18358,-2.61881 -8.17198,1.69316 -16.20816,3.61727 -17.85816,4.27582 -2.19644,0.87663 -5.7898,-3.81148 -13.41526,-17.50232 -5.7284,-10.28483 -11.74896,-19.806558 -13.37906,-21.159412 -5.01024,-4.15813 -13.88822,-1.868286 -15.9821,4.122162 -1.57428,4.50391 -0.21738,8.25846 9.10302,25.18806 l 10.95308,19.89519 -11.3103,10.15625 c -12.56538,11.28328 -24.93484,32.29362 -27.14332,46.10467 l -1.3373,8.36296 h 98.29372 98.29372 z m -231.94524,-37 c -3.94286,-19.0981 -4.6578,-28.63313 -4.72856,-63.06423 -0.0942,-45.81907 -1.1182,-50.443862 -13.2128,-59.672122 l -7.55386,-5.763644 -84.85678,-0.582352 c -82.88355,-0.56881 -85.0597,-0.484124 -93.582936,3.641904 -5.183876,2.50947 -10.583482,7.211184 -13.301566,11.582352 -4.18507,6.730346 -4.63599,10.149134 -5.285402,40.072954 -1.015536,46.794068 0.348386,56.766488 9.086794,66.438868 4.045824,4.47824 10.109344,8.62591 14.3201,9.79548 4.24838,1.18002 37.00073,2.09837 78.30309,2.19556 l 71,0.16708 26,8.63443 c 14.3,4.74893 26.55286,8.72877 27.22856,8.84408 0.6757,0.1153 -0.86178,-9.91535 -3.41664,-22.29035 z"
       id="path36"
       inkscape:connector-curvature="0"
       transform="matrix(0.26458333,0,0,0.26458333,28.973344,57.12573)" />
    <path
       style="fill:#0066ff;fill-opacity:1;fill-rule:evenodd;stroke:#0066ff;stroke-width:0.75590551;stroke-miterlimit:4;stroke-dasharray:none;stroke-opacity:1"
       d="m 383.3297,171.35446 c -2.14707,-5.59519 0.80305,-9.44779 6.71398,-8.76789 4.37641,0.5034 5.51137,1.6636 5.51137,5.63394 0,3.97035 -1.13496,5.13055 -5.51137,5.63395 -3.59413,0.41341 -5.92972,-0.45627 -6.71398,-2.5 z"
       id="path38"
       inkscape:connector-curvature="0"
       transform="matrix(0.26458333,0,0,0.26458333,28.973344,57.12573)" />
    <path
       style="fill:#5555ff;fill-opacity:1;fill-rule:evenodd;stroke:#5555ff;stroke-width:0.75590551;stroke-miterlimit:4;stroke-dasharray:none;stroke-opacity:1"
       d="m 471.3297,171.35446 c -2.14707,-5.59519 0.80305,-9.44779 6.71398,-8.76789 4.37641,0.5034 5.51137,1.6636 5.51137,5.63394 0,3.97035 -1.13496,5.13055 -5.51137,5.63395 -3.59413,0.41341 -5.92972,-0.45627 -6.71398,-2.5 z"
       id="path40"
       inkscape:connector-curvature="0"
       transform="matrix(0.26458333,0,0,0.26458333,28.973344,57.12573)" />
    <path
       style="fill:#5555ff;fill-opacity:1;fill-rule:evenodd;stroke:#5555ff;stroke-width:0.75590551;stroke-miterlimit:4;stroke-dasharray:none;stroke-opacity:1"
       d="M 0.55505,255.22051 V 2.2205139 h 348 348 v 252.9999961 253 h -348 -348 z m 489.4231,212.79518 c 13.93742,-6.74698 15.54834,-11.66242 15.49638,-47.28446 l -0.0444,-30.4893 6.2326,-2.05694 c 7.4081,-2.44488 15.80832,-10.76882 18.76514,-18.59468 1.3629,-3.60738 2.12718,-32.17016 2.12718,-79.5 v -73.8698 h -99 -99 l 0.012,72.5 c 0.006,43.05034 0.83876,75.47968 2.04858,79.83546 2.42096,8.7164 13.0921,18.72116 22.0717,20.6934 l 6.42856,1.41196 -1.36448,24.55842 c -2.25134,40.52004 3.77822,52.94796 26.4852,54.59042 10.85262,0.78502 12.20248,0.3907 18.95346,-5.53676 9.59446,-8.42404 11.34128,-15.73962 11.35466,-47.5529 l 0.0103,-26.5 h 13.8205 13.8205 l 0.7064,30.5 c 0.8271,35.71102 2.80466,41.49286 16.28524,47.61324 10.71376,4.8642 14.17712,4.81978 24.79046,-0.31806 z m -202.4231,-121.5674 c 3.35112,-1.84026 7.96932,-7.25336 10.46072,-12.26132 8.4846,-17.05482 30.78866,-78.48084 31.8981,-87.8483 2.04508,-17.26748 -9.47916,-30.09556 -27.05024,-30.11068 -11.52586,-0.01 -19.00812,4.74124 -24.96312,15.85134 -7.39026,13.78784 -31.72242,79.99094 -32.82472,89.30976 -1.5884,13.42834 4.91102,23.00084 18.9603,27.92516 8.25844,2.89462 14.3894,2.14752 23.51896,-2.86596 z m 323.74618,-0.87756 c 6.9242,-4.53692 11.91174,-16.44274 10.51696,-25.10522 -0.6416,-3.98476 -6.43648,-21.195 -12.8775,-38.245 -22.9489,-60.74782 -26.56728,-66 -45.4695,-66 -9.1943,0 -11.81154,0.90838 -17.82184,6.18548 -11.12808,9.7706 -12.52548,17.84584 -6.29826,36.39644 10.10286,30.0959 29.62382,77.68258 33.88238,82.5959 8.7901,10.14156 26.06754,12.03524 38.06776,4.1724 z m -79.8272,-141.85022 c -3.21928,-14.9591 -12.94466,-31.91551 -26.15106,-45.59497 l -13.37258,-13.85159 10.74136,-20.76773 c 9.68878,-18.7326 10.50656,-21.28307 8.34522,-26.026712 -1.77618,-3.898256 -3.87952,-5.258994 -8.12906,-5.258994 -6.99934,0 -9.26944,2.508078 -21.27016,23.499996 -10.5831,18.51217 -9.11904,17.89072 -33.431,14.19041 -13.1349,-1.99915 -18.00722,-1.8222 -33.78602,1.22707 -15.4669,2.989 -18.70028,3.12158 -20.06724,0.82282 -22.00936,-37.0121 -23.8891,-39.15511 -32.45842,-37.004346 -9.41848,2.363888 -8.8484,8.929736 2.6621,30.660486 l 10.38376,19.60356 -12.05588,12.28552 c -12.98916,13.23657 -23.44636,31.48406 -25.53768,44.56248 l -1.30356,8.152 h 98.41454 98.41452 z m -227.88876,-18 c -6.31788,-27.18039 -7.3035,-36.28945 -8.27742,-76.5 -0.58614,-24.199996 -1.96032,-46.910518 -3.05374,-50.467824 -1.09342,-3.557306 -5.68502,-9.632306 -10.20354,-13.5 l -8.21552,-7.032172 h -85.21622 c -84.40852,0 -85.30037,0.04265 -94.094244,4.5 -15.9916,8.105656 -16.969536,11.70746 -16.969536,62.499996 0,42.36695 0.16982,44.2731 4.575418,51.3581 2.685832,4.3193 8.108944,9.06865 13.131448,11.5 8.167504,3.95382 11.822244,4.1419 80.483224,4.1419 h 71.92719 l 25.94136,8.84681 c 30.72198,10.47713 31.3479,10.57431 29.97158,4.65319 z"
       id="path42"
       inkscape:connector-curvature="0"
       transform="matrix(0.26458333,0,0,0.26458333,28.973344,57.12573)" />
    <path
       style="fill:#0066ff;fill-opacity:1;fill-rule:evenodd;stroke:#0066ff;stroke-width:0.75590551;stroke-miterlimit:4;stroke-dasharray:none;stroke-opacity:1"
       d="m 383.2783,171.22051 c -2.94478,-7.67397 5.95676,-12.41019 11.27675,-6 1.98637,2.39344 1.98637,3.60657 0,6 -3.20826,3.86572 -9.79333,3.86572 -11.27675,0 z"
       id="path44"
       inkscape:connector-curvature="0"
       transform="matrix(0.26458333,0,0,0.26458333,28.973344,57.12573)" />
    <path
       style="fill:#0066ff;fill-opacity:1;fill-rule:evenodd;stroke:#0066ff;stroke-width:0.75590551;stroke-miterlimit:4;stroke-dasharray:none;stroke-opacity:1"
       d="M 0.55505,255.22051 V 2.2205139 h 348 348 v 252.9999961 253 h -348 -348 z m 487,213.23854 c 15.3474,-7.04756 15.92136,-8.60054 16.62874,-44.99282 l 0.62874,-32.34634 9.30206,-4.9497 c 17.58122,-9.35508 17.34492,-8.12252 18.10662,-94.44968 l 0.66618,-75.5 h -99.40728 -99.40728 l 0.80374,75.55626 c 0.79098,74.35548 0.87584,75.67292 5.34062,82.89706 2.93182,4.7438 7.99996,8.96922 14.32584,11.94374 l 9.78896,4.60294 -0.21024,28 c -0.29692,39.542 3.90946,47.7052 25.92536,50.31266 8.29852,0.98282 10.99814,0.44466 15.88186,-3.16602 11.61866,-8.59006 13.36282,-14.28642 14.2826,-46.64664 l 0.83848,-29.5 h 13.44156 13.44158 l 1.22496,29.5 c 1.52066,36.6206 2.96286,41.14998 15.11844,47.48114 11.22664,5.8473 13.06662,5.9467 23.27846,1.2574 z M 286.75929,345.72051 c 9.20498,-6.09534 18.56274,-25.55316 32.92492,-68.46164 l 11.58142,-34.6007 -3.45876,-9.0566 c -1.90574,-4.99012 -5.88182,-10.65218 -8.85528,-12.61018 -7.36992,-4.85304 -23.8412,-4.89616 -31.19688,-0.0816 -6.72712,4.40308 -16.80792,25.1714 -30.08956,61.99006 -12.95932,35.92516 -14.30982,42.57788 -10.49622,51.7051 5.89904,14.11838 26.37414,19.8671 39.59036,11.11564 z m 321.0816,1.23032 c 8.09154,-3.8397 13.28092,-12.743 13.20664,-22.6584 -0.0828,-11.06442 -20.51038,-67.20284 -33.00368,-90.69994 -6.62134,-12.45326 -13.26204,-17.37198 -23.45372,-17.37198 -15.52044,0 -28.03508,11.35336 -28.03508,25.43356 0,10.86652 10.40852,40.9839 28.39052,82.14894 6.87554,15.7397 9.22586,19.16828 15.36342,22.4116 8.98688,4.74904 18.53732,5.00442 27.5319,0.73622 z M 531.49711,203.72051 c -2.45994,-11.6224 -15.11952,-33.11517 -27.39816,-46.51514 l -12.00718,-13.10372 9.23164,-18.06147 c 9.31728,-18.22901 11.22918,-27.022128 6.83164,-31.419666 -6.47014,-6.470144 -12.97576,-1.416414 -25.65892,19.932516 -4.44422,7.48072 -9.85182,14.54935 -12.0169,15.70806 -2.7644,1.47946 -8.8476,1.45943 -20.43034,-0.0673 -13.22586,-1.74326 -20.06024,-1.57967 -34.49384,0.82568 l -18,2.99969 -4,-4.71877 c -2.2,-2.59532 -8.04524,-11.08824 -12.9894,-18.87316 -9.68348,-15.247232 -11.73772,-16.853398 -19.16952,-14.988136 -7.50948,1.88476 -6.27412,11.178836 4.18858,31.511996 l 9.02966,17.5482 -12.6712,14.79128 c -13.44566,15.69535 -22.11706,31.11272 -24.42684,43.42992 l -1.40644,7.5 h 98.38148 98.3815 z m -227.72024,-18 c -4.4055,-15.92731 -7.18606,-42.30044 -8.29578,-78.68444 -0.70146,-22.998554 -2.1652,-44.73636 -3.25274,-48.306232 -1.11568,-3.662218 -5.70494,-9.545144 -10.53132,-13.5 l -8.55394,-7.009324 h -84.97946 -84.97945 l -8.78863,4.647542 c -14.89611,7.877252 -16.728902,13.210198 -17.550484,51.067316 -1.015536,46.794068 0.348386,56.766488 9.086794,66.438868 4.045824,4.47824 10.109344,8.62591 14.3201,9.79548 4.29382,1.19264 36.1711,2.03308 77.36173,2.03964 l 70.05864,0.0111 25.94136,8.84681 c 30.77724,10.49598 31.82396,10.65746 30.16318,4.65319 z"
       id="path46"
       inkscape:connector-curvature="0"
       transform="matrix(0.26458333,0,0,0.26458333,28.973344,57.12573)" />
    <path
       style="fill:#0066ff;fill-opacity:1;fill-rule:evenodd;stroke:#0066ff;stroke-width:0.75590551;stroke-miterlimit:4;stroke-dasharray:none;stroke-opacity:1"
       d="m 471.2783,171.22051 c -2.94478,-7.67397 5.95676,-12.41019 11.27675,-6 1.98637,2.39344 1.98637,3.60657 0,6 -3.20826,3.86572 -9.79333,3.86572 -11.27675,0 z"
       id="path48"
       inkscape:connector-curvature="0"
       transform="matrix(0.26458333,0,0,0.26458333,28.973344,57.12573)" />
    <rect
       transform="matrix(-0.99990953,-0.01345084,-0.01345084,0.99990953,0,0)"
       style="fill:#ffffff;stroke:#ffffff;stroke-width:1.90499997"
       x="-141.41838"
       y="145.04375"
       width="12.7"
       height="35.189583"
       rx="6.3499999"
       id="rect60" />
    <rect
       id="rect62"
       rx="6.3499999"
       height="35.189583"
       width="12.7"
       y="144.7451"
       x="-163.64116"
       style="fill:#ffffff;stroke:#ffffff;stroke-width:1.90499997"
       transform="matrix(-0.99990953,-0.01345084,-0.01345084,0.99990953,0,0)" />
  </g>
  <g
     inkscape:groupmode="layer"
     id="layer5"
     inkscape:label="Layer 3"
     transform="translate(-28.973344,-57.12573)"
     style="display:inline">
    <g
       id="g11455">
      <path
         inkscape:transform-center-y="-1.7030009"
         inkscape:transform-center-x="2.6065691"
         d="M 109.21582,107.29958 81.777689,98.270157 103.31646,79.022743 Z"
         inkscape:randomized="0"
         inkscape:rounded="0"
         inkscape:flatsided="true"
         sodipodi:arg2="1.8887165"
         sodipodi:arg1="0.84151895"
         sodipodi:r2="8.3385735"
         sodipodi:r1="16.677147"
         sodipodi:cy="94.864159"
         sodipodi:cx="98.103325"
         sodipodi:sides="3"
         id="path11448"
         style="fill:#ffffff;fill-opacity:1;fill-rule:evenodd;stroke:#5599ff;stroke-width:0.1;stroke-miterlimit:4;stroke-dasharray:none;stroke-opacity:1"
         sodipodi:type="star" />
      <rect
         ry="8"
         rx="8"
         y="67.621132"
         x="49.75655"
         height="34.630653"
         width="56.855656"
         id="rect11430"
         style="fill:#ffffff;fill-opacity:1;fill-rule:evenodd;stroke:#ffffff;stroke-width:0.12976108;stroke-miterlimit:4;stroke-dasharray:none;stroke-opacity:1" />
    </g>
    <flowRoot
       xml:space="preserve"
       id="flowRoot11457"
       style="font-style:normal;font-weight:normal;font-size:40px;line-height:125%;font-family:sans-serif;letter-spacing:0px;word-spacing:0px;fill:#000000;fill-opacity:1;stroke:none;stroke-width:1px;stroke-linecap:butt;stroke-linejoin:miter;stroke-opacity:1"
       transform="scale(0.26458333)"><flowRegion
         id="flowRegion11459"><rect
           id="rect11461"
           width="100"
           height="49"
           x="249"
           y="304.51968" /></flowRegion><flowPara
         id="flowPara11463" /></flowRoot>  </g>
</svg>
